Coordinates
version=1
nRows=32
nColumns=22
inDegrees=yes

Units are S.I. units (second, meters, Newtons, ...)
If the header above contains a line with 'inDegrees', this indicates whether rotational values are in degrees (yes) or radians (no).

endheader
time	pelvis_tilt	pelvis_list	pelvis_rotation	pelvis_tx	pelvis_ty	pelvis_tz	hip_flexion_r	hip_adduction_r	hip_rotation_r	knee_angle_r	ankle_angle_r	subtalar_angle_r	hip_flexion_l	hip_adduction_l	hip_rotation_l	knee_angle_l	ankle_angle_l	subtalar_angle_l	lumbar_extension	lumbar_bending	lumbar_rotation
      0.01000000	     -2.08663267	     -1.97839116	    -11.95700767	     -0.74728623	      0.89944934	      0.82875340	     -8.21467537	     -1.30362815	     10.51837396	    -40.14717116	    -20.09782991	     15.51818501	     27.22826216	     -6.07511164	    -22.25326501	    -32.53867791	      5.39786223	    -13.64688386	     -6.01163778	     -4.11829121	     13.42160828
      0.02000000	     -2.02178789	     -1.90832786	    -11.88804473	     -0.73977920	      0.90076758	      0.82728932	     -6.78306785	     -1.25815616	     10.64387540	    -42.68318533	    -21.77405048	     15.37956016	     26.57348517	     -5.72294440	    -22.29783885	    -32.34842036	      5.76882426	    -13.52262996	     -6.00859975	     -4.21498070	     13.21255304
      0.03000000	     -1.99101949	     -1.79019297	    -11.78180281	     -0.73113732	      0.90209202	      0.82550216	     -5.02517019	     -1.23348590	     10.70855888	    -45.57928055	    -23.52206542	     14.94995640	     25.87477368	     -5.27116126	    -22.32467428	    -32.11962730	      6.24648120	    -13.41160649	     -5.94911730	     -4.34062782	     12.90624898
      0.04000000	     -1.89701432	     -1.62839611	    -11.64235462	     -0.72168807	      0.90352534	      0.82345706	     -3.14091676	     -1.25597204	     10.73277593	    -48.62023403	    -25.18682607	     14.42665747	     25.03225271	     -4.71746208	    -22.36322933	    -31.81737577	      6.71574451	    -13.30916375	     -5.94764690	     -4.51050674	     12.53429715
      0.05000000	     -1.73816858	     -1.43054607	    -11.45464566	     -0.71176673	      0.90501475	      0.82120440	     -1.21208306	     -1.31601913	     10.72945990	    -51.65512322	    -26.55503863	     13.94585303	     24.07457275	     -4.07885701	    -22.39683618	    -31.45328811	      7.14403851	    -13.19971496	     -6.00996081	     -4.71594466	     12.08894129
      0.06000000	     -1.55726713	     -1.21351376	    -11.19757181	     -0.70160367	      0.90645552	      0.81877078	      0.73434888	     -1.38404819	     10.69554827	    -54.57346416	    -27.36111560	     13.33806543	     23.06871799	     -3.38131383	    -22.38691709	    -31.04488413	      7.62302206	    -13.07497097	     -6.08965841	     -4.92288777	     11.52479703
      0.07000000	     -1.32923443	     -1.01860969	    -10.86900525	     -0.69138873	      0.90793532	      0.81620013	      2.61169325	     -1.41980777	     10.64382730	    -57.27217795	    -27.59752448	     12.73229093	     21.98901702	     -2.66890037	    -22.31565277	    -30.58124465	      8.05985079	    -12.94400310	     -6.22810442	     -5.08868392	     10.88767355
      0.08000000	     -1.06659071	     -0.83065906	    -10.46113978	     -0.68121807	      0.90943822	      0.81350774	      4.42065916	     -1.45373885	     10.53902741	    -59.72708479	    -27.28710852	     12.24630562	     20.85629026	     -1.93359856	    -22.17985011	    -30.06406025	      8.42957975	    -12.80383148	     -6.40707341	     -5.23387693	     10.17689119
      0.09000000	     -0.78658827	     -0.67178763	     -9.97763571	     -0.67114868	      0.91096720	      0.81070658	      6.15214498	     -1.45942963	     10.39127116	    -61.90394963	    -26.43193727	     11.76394826	     19.68027465	     -1.20134137	    -21.95224748	    -29.48110392	      8.76518238	    -12.66035904	     -6.61132058	     -5.32816692	      9.40595936
      0.10000000	     -0.49785458	     -0.53732862	     -9.40917048	     -0.66120689	      0.91251730	      0.80777957	      7.81462989	     -1.45441418	     10.18106316	    -63.79564199	    -25.19730954	     11.47308811	     18.47981758	     -0.48341768	    -21.67319773	    -28.85409849	      9.01895358	    -12.53070736	     -6.83328598	     -5.37399207	      8.55795289
      0.11000000	     -0.21274625	     -0.42370854	     -8.78523723	     -0.65141512	      0.91406077	      0.80476435	      9.43445510	     -1.44452255	      9.92629838	    -65.41564567	    -23.72562546	     11.11917336	     17.26309354	      0.21576576	    -21.32620361	    -28.17993824	      9.23792492	    -12.39802798	     -7.05679222	     -5.38059102	      7.69845115
      0.12000000	      0.05682089	     -0.34807330	     -8.10351926	     -0.64178178	      0.91558278	      0.80165438	     11.01664631	     -1.40665878	      9.64180283	    -66.75652993	    -22.12522999	     10.78464135	     16.04306212	      0.87089806	    -20.91479999	    -27.46613969	      9.44161560	    -12.27449440	     -7.27584725	     -5.32698527	      6.82712036
      0.13000000	      0.30328022	     -0.29905830	     -7.36083934	     -0.63229697	      0.91705773	      0.79844204	     12.56777889	     -1.35903812	      9.32310578	    -67.82161466	    -20.45833581	     10.46033454	     14.83071713	      1.49422778	    -20.41201587	    -26.71258237	      9.60692852	    -12.15744414	     -7.48006904	     -5.22828132	      5.95361734
      0.14000000	      0.53392573	     -0.28612895	     -6.57215277	     -0.62296465	      0.91846920	      0.79517321	     14.07787535	     -1.28303248	      8.99975824	    -68.61467585	    -18.77162992	     10.19601050	     13.63284706	      2.05916010	    -19.84170540	    -25.96055659	      9.75391207	    -12.05482823	     -7.68175053	     -5.08089206	      5.06876246
      0.15000000	      0.74847958	     -0.30577555	     -5.73813126	     -0.61369637	      0.91981488	      0.79181875	     15.53279199	     -1.20941963	      8.63756038	    -69.12019104	    -17.08309251	      9.97458442	     12.43473915	      2.56996776	    -19.22396725	    -25.18795163	      9.89033556	    -11.96170660	     -7.86583076	     -4.88546199	      4.20326474
      0.16000000	      0.95585079	     -0.35802645	     -4.87526961	     -0.60450503	      0.92108741	      0.78841534	     16.92002292	     -1.12881099	      8.26379463	    -69.34026087	    -15.40492742	      9.81601794	     11.23777222	      3.02016992	    -18.55620381	    -24.41603638	     10.02588537	    -11.88009279	     -8.04628982	     -4.64888032	      3.37108809
      0.17000000	      1.16104831	     -0.43564213	     -3.98427040	     -0.59537617	      0.92227713	      0.78496910	     18.22732744	     -1.05155878	      7.87481120	    -69.27330343	    -13.76069217	      9.72247707	     10.04345011	      3.41306825	    -17.84594166	    -23.65728616	     10.16232782	    -11.80466770	     -8.22726828	     -4.38093341	      2.55844990
      0.18000000	      1.36149945	     -0.53539260	     -3.06986107	     -0.58631022	      0.92336898	      0.78149229	     19.45183742	     -0.98118767	      7.47023230	    -68.91638928	    -12.18211725	      9.68980494	      8.85888373	      3.74797420	    -17.10116217	    -22.91817602	     10.30728590	    -11.72896827	     -8.40614179	     -4.08730290	      1.77153830
      0.19000000	      1.55389953	     -0.65029616	     -2.13718182	     -0.57730236	      0.92434610	      0.77799531	     20.59481842	     -0.92353499	      7.04994789	    -68.27507506	    -10.71001198	      9.68148453	      7.69008308	      4.02964453	    -16.32851629	    -22.20167241	     10.46470110	    -11.64149926	     -8.57816931	     -3.77693433	      1.01503533
      0.20000000	      1.72189581	     -0.76808641	     -1.19116395	     -0.56836943	      0.92516697	      0.77450698	     21.67558357	     -0.88065186	      6.63188196	    -67.36246410	     -9.37509863	      9.66600150	      6.56163685	      4.26633274	    -15.53508833	    -21.51823880	     10.64120199	    -11.53955766	     -8.72706895	     -3.46754203	      0.27182709
      0.21000000	      1.87916443	     -0.89021012	     -0.22714960	     -0.55948225	      0.92585951	      0.77100419	     22.67076279	     -0.85985033	      6.19791015	    -66.17636314	     -8.21980147	      9.54179519	      5.44586049	      4.46312508	    -14.71479548	    -20.84035259	     10.82912545	    -11.39649777	     -8.86587090	     -3.15615673	     -0.42162152
      0.22000000	      2.01984942	     -1.00584220	      0.74162938	     -0.55062882	      0.92639848	      0.76754245	     23.58492178	     -0.85415698	      5.78047254	    -64.73216700	     -7.21662238	      9.32088887	      4.35282418	      4.62571003	    -13.88488951	    -20.17818163	     11.04553797	    -11.21884521	     -8.98632444	     -2.86368965	     -1.09479978
      0.23000000	      2.15589379	     -1.11133239	      1.70920819	     -0.54177043	      0.92680018	      0.76411385	     24.39504978	     -0.86705881	      5.38745312	    -63.02864058	     -6.36221940	      9.02227183	      3.26042002	      4.76033153	    -13.05546992	    -19.51666991	     11.28998879	    -11.00704853	     -9.10054670	     -2.59212274	     -1.74316738
      0.24000000	      2.27823252	     -1.19810044	      2.67519390	     -0.53289767	      0.92704136	      0.76071556	     25.10432444	     -0.89715365	      5.04011186	    -61.07347684	     -5.63813289	      8.73429880	      2.18001544	      4.87980972	    -12.22401217	    -18.85850320	     11.55619984	    -10.79645793	     -9.19925805	     -2.35022192	     -2.39079333
      0.25000000	      2.35669882	     -1.25252245	      3.64543010	     -0.52400075	      0.92704550	      0.75729836	     25.74541405	     -0.98661752	      4.69403081	    -58.88256958	     -4.96504576	      8.54920231	      1.15169244	      5.00401480	    -11.39760596	    -18.22395018	     11.86659433	    -10.64137140	     -9.24511837	     -2.15238229	     -2.99663013
      0.26000000	      2.51995266	     -1.31230264	      4.57629560	     -0.51501493	      0.92707971	      0.75396837	     26.14934382	     -1.03892168	      4.40314873	    -56.40261974	     -4.45592337	      8.12054182	     -0.00641146	      5.08951404	    -10.56079230	    -17.53052353	     12.08128567	    -10.48692336	     -9.38640349	     -1.95706545	     -3.54645912
      0.27000000	      2.54129662	     -1.32146764	      5.54659428	     -0.50607318	      0.92669959	      0.75057117	     26.59583633	     -1.18487595	      4.09205057	    -53.71905861	     -3.98735420	      7.98307916	     -0.96374534	      5.21080644	     -9.64657215	    -16.94655481	     12.31875463	    -10.50051404	     -9.37375828	     -1.82981122	     -4.15090561
      0.28000000	      2.67340098	     -1.33812663	      6.47542716	     -0.49701214	      0.92636937	      0.74724075	     26.76664598	     -1.28902373	      3.80934813	    -50.74774208	     -3.62731238	      7.60572347	     -2.06201516	      5.28472243	     -8.75230293	    -16.34234107	     12.48633568	    -10.63566997	     -9.48290881	     -1.69320317	     -4.66973132
      0.29000000	      2.65536905	     -1.32348954	      7.45103615	     -0.48797185	      0.92560598	      0.74385005	     26.98783083	     -1.47573217	      3.46876622	    -47.58755968	     -3.32484940	      7.46473042	     -2.93076674	      5.37300189	     -7.78138493	    -15.88799426	     12.72067551	    -10.76876179	     -9.42652739	     -1.61095510	     -5.26318656
      0.30000000	      2.73977730	     -1.31192886	      8.38014360	     -0.47880726	      0.92485226	      0.74055527	     26.94593024	     -1.61044806	      3.16843290	    -44.16221419	     -3.07790831	      7.18163362	     -3.89699364	      5.41199604	     -6.85411053	    -15.47839718	     12.95149300	    -10.98741241	     -9.48389398	     -1.52481475	     -5.77052448
      0.31000000	      2.68720405	     -1.29201980	      9.34489903	     -0.46957497	      0.92368966	      0.73721210	     26.94353806	     -1.80552290	      2.77273794	    -40.57374290	     -2.90219385	      7.09324213	     -4.66178010	      5.44435558	     -5.91748473	    -15.19244742	     13.29204308	    -11.12015389	     -9.37402334	     -1.47211429	     -6.34176048
      0.32000000	      2.73582058	     -1.26435999	     10.27072748	     -0.46023235	      0.92252257	      0.73394356	     26.69026960	     -1.95400241	      2.41809059	    -36.76364395	     -2.73684908	      6.98630590	     -5.50221528	      5.44063039	     -5.01644859	    -14.99224161	     13.63521855	    -11.28822282	     -9.38165971	     -1.42450479	     -6.82079763
